<?xml version="1.0" encoding="UTF-8"?>
<svg width="36px" height="36px" viewBox="0 0 36 36" version="1.1" xmlns="http://www.w3.org/2000/svg" xmlns:xlink="http://www.w3.org/1999/xlink">
    <!-- Generator: Sketch 50.2 (55047) - http://www.bohemiancoding.com/sketch -->
    <title>Artboard Copy</title>
    <desc>Created with Sketch.</desc>
    <defs></defs>
    <g id="Artboard-Copy" stroke="none" stroke-width="1" fill="none" fill-rule="evenodd">
        <path d="M3.07732369,28.0654723 C-2.48168314,19.8239057 -0.307038812,8.63633052 7.93452774,3.07732369 C16.1760943,-2.48168314 27.3636695,-0.307038812 32.9226763,7.93452774 C38.4816831,16.1760943 36.3070388,27.3636695 28.0654723,32.9226763 C19.8239057,38.4816831 8.63633052,36.3070388 3.07732369,28.0654723 Z M4.73539884,26.9470865 C9.67673824,34.2729234 19.6212495,36.2059406 26.9470865,31.2646012 C34.2729234,26.3232618 36.2059406,16.3787505 31.2646012,9.05291354 C26.3232618,1.72707661 16.3787505,-0.205940565 9.05291354,4.73539884 C1.72707661,9.67673824 -0.205940565,19.6212495 4.73539884,26.9470865 Z" id="Oval-7" fill="#FFFFFF"></path>
        <path d="M14.7453626,31.6197173 C8.58296246,30.1525696 4,24.6114889 4,18 C4,11.3885111 8.58296246,5.84743037 14.7453626,4.38028274 L14.7453626,31.6197173 Z" id="Path" fill="#FFFFFF"></path>
        <path d="M16.703204,22.4451939 L20.2091062,19.1669477 C21.2715062,18.1956107 21.8026981,17.2091112 21.8026981,16.2074199 C21.8026981,15.4182085 21.4612176,14.7504243 20.7782462,14.2040472 C20.0952748,13.6576701 19.2226023,13.3389549 18.1602024,13.2478921 L18.1602024,12.3372681 C19.8903965,12.428331 21.7116262,12.4738617 23.623946,12.4738617 C26.5986658,12.4738617 28.677903,12.428331 29.8617201,12.3372681 L29.8617201,13.2478921 C27.7672745,13.8246235 25.5210912,15.311961 23.1231029,17.7099494 L21.9392917,18.8937605 L27.0795047,28.6569323 C24.9877407,30.4407954 22.3643142,31.6196461 19.4800101,31.9226995 L16.2023609,24.994941 C15.6199364,23.5677547 15.6246552,23.5237428 16.703204,22.4451939 Z" id="Path" fill="#FFFFFF"></path>
    </g>
</svg>