<?xml version="1.0" encoding="UTF-8"?>
<svg width="22px" height="20px" viewBox="0 0 22 20" version="1.1" xmlns="http://www.w3.org/2000/svg" xmlns:xlink="http://www.w3.org/1999/xlink">
    <!-- Generator: Sketch 50.2 (55047) - http://www.bohemiancoding.com/sketch -->
    <title>tag icon</title>
    <desc>Created with Sketch.</desc>
    <defs></defs>
    <g id="tag-icon" stroke="none" stroke-width="1" fill="none" fill-rule="evenodd">
        <g id="tags" fill="#2B4459">
            <path d="M4.45281302,0 L9.54111236,0 C11.3885319,0 12.9175418,1.46269404 13.0327807,3.34022846 L13.9939254,15.437274 C14.1144501,17.4009281 12.4238392,18.8769935 10.495444,18.9997219 C10.4896173,19.0000927 8.15729637,19.0000927 3.49848134,18.9997219 C1.56632345,18.9997219 0,17.4047596 0,15.437274 L0.961144693,3.34022846 C1.07638356,1.46269404 2.60539348,0 4.45281302,0 Z M7,7.1248957 C8.28866442,7.1248957 9.33333333,6.06158755 9.33333333,4.74993047 C9.33333333,3.43827339 8.28866442,2.37496523 7,2.37496523 C5.71133558,2.37496523 4.66666667,3.43827339 4.66666667,4.74993047 C4.66666667,6.06158755 5.71133558,7.1248957 7,7.1248957 Z" id="Rectangle-2"></path>
            <path d="M13.5919455,0.0309696375 C15.3262683,-0.18969501 17.0199166,0.786146853 17.5916098,2.40591734 L21.8325535,13.730919 C22.4846566,15.578514 21.152716,17.4321972 19.2130771,18.0529091 C19.2079844,18.0545388 17.4057778,18.5143599 13.8064575,19.4323724 C15.2322953,18.6434734 16.4123665,17.1105459 16.2887078,15.2932594 L15.0531424,2.35280915 C15.0129652,1.76236579 14.4519596,0.801232259 13.5919455,0.0309696375 Z M11.1896926,19.9988268 C11.1299438,19.9988327 11.0667129,19.998838 11,19.9988428 C11.0630131,20.0003862 11.1262597,20.0003906 11.189687,19.9988268 Z" id="Rectangle-2-Copy-2"></path>
        </g>
    </g>
</svg>